<svg width="26" height="24" viewBox="0 0 26 24" fill="none" xmlns="http://www.w3.org/2000/svg">
<path d="M20.105 6.66883C20.105 10.0262 17.0539 12.8377 13.1734 12.8377C9.2928 12.8377 6.2417 10.0262 6.2417 6.66883C6.2417 3.31143 9.2928 0.5 13.1734 0.5C17.0539 0.5 20.105 3.31143 20.105 6.66883Z" fill="#FFF8F8" stroke="white"/>
<path d="M1.66991 19.1309C2.11248 17.2668 3.95461 16.0904 5.83192 16.473L10.9237 17.5108C12.2168 17.7743 13.5495 17.7771 14.8437 17.5189L20.1718 16.4558C22.049 16.0813 23.8858 17.2596 24.328 19.122C24.8584 21.3562 23.164 23.5 20.8677 23.5H5.12314C2.83149 23.5 1.14054 21.3606 1.66991 19.1309Z" fill="#FFF9F9" stroke="white"/>
</svg>
